PathFileType	4	(X/Y/Z)	C:\Users\WrightLab\Desktop\Jo\P5V15.trc
DataRate	CameraRate	NumFrames	NumMarkers	Units	OrigDataRate	OrigDataStartFrame	OrigNumFrames
100.00	100.00	       14	19	mm	100.00	604	       805
Frame#	Time	Headset_Front			Headset_Back			Headset_Left			Headset_Right			Left_Shoulder			Right_Shoulder			Sternum			C7			Left Elbow			Right Elbow			Left Wrist			Right Wrist			Left ASIS			Right ASIS			S2			Left Knee			Right Knee			Left Ankle			Right Ankle			
		X1	Y1	Z1	X2	Y2	Z2	X3	Y3	Z3	X4	Y4	Z4	X5	Y5	Z5	X6	Y6	Z6	X7	Y7	Z7	X8	Y8	Z8	X9	Y9	Z9	X10	Y10	Z10	X11	Y11	Z11	X12	Y12	Z12	X13	Y13	Z13	X14	Y14	Z14	X15	Y15	Z15	X16	Y16	Z16	X17	Y17	Z17	X18	Y18	Z18	X19	Y19	Z19	

604	6.030	406.21225	1757.71582	-487.77478	293.81711	1513.40430	-656.99829				421.20370	1595.49915	-659.92188				620.08191	1465.89160	-559.49219	427.90335	1311.26416	-504.43832	519.35468	1540.86255	-353.45233	232.51772	1218.40576	-197.42320	787.42682	1224.61987	-511.95514	108.77068	1016.31885	-253.53275				567.76782	1000.70575	-230.22981	587.30621	949.27734	-530.94080	335.71225	915.15564	-409.60928	318.88470	504.63470	-399.63342	657.55908	502.43549	-487.48929	434.10760	235.04599	-144.95908	691.69513	109.56676	-369.90817	
605	6.040	404.55121	1757.75037	-492.40033	290.13354	1514.58789	-662.28925				417.98129	1596.08679	-665.36761	273.32486	1490.30017	-333.86462	616.78387	1465.63708	-567.31171	424.77280	1311.12817	-510.88077	519.18549	1540.48047	-360.92181	232.57703	1219.63440	-199.89111	704.74481	1022.92499	-646.47595	105.96933	1018.37213	-254.77136				567.60626	1000.51233	-236.93456	584.32397	949.38080	-536.94775	332.78476	915.23871	-413.95288	312.59323	506.07596	-409.32861	656.77618	502.74033	-492.03012	432.45804	236.35883	-157.57156	691.04065	110.18362	-370.43018	
606	6.050	402.53470	1757.54211	-497.84064							414.32123	1597.00232	-671.43976	272.44629	1490.92004	-335.72644	613.45367	1465.17517	-575.26050	421.97342	1311.04480	-516.45001	518.86829	1540.32300	-367.81451	231.27921	1221.04834	-203.10143	781.14362	1222.85706	-533.53186	103.91526	1020.08069	-254.62096	698.79065	1022.14539	-655.95752	566.27234	1000.55438	-242.81218	579.82086	948.62219	-543.44452	330.43698	915.37634	-417.94870	306.46082	508.27716	-416.79559	655.19458	501.32239	-496.86758	431.16302	236.09216	-171.26199	690.87781	110.48237	-371.35184	
607	6.060										410.69031	1597.98523	-677.05927				609.89313	1464.86060	-583.27637	418.56927	1311.52087	-521.75488	516.58850	1540.49475	-374.07498	230.78496	1222.31079	-205.66479	777.34369	1221.84949	-543.27301	101.58676	1022.45435	-255.43575	693.34210	1022.81348	-666.77563	565.41833	1000.30145	-248.49524	575.03619	949.04352	-550.25934	327.82184	916.07007	-421.48090	300.03040	510.25119	-425.54529	654.07385	501.03149	-501.42044	428.78879	235.00409	-185.06731	690.44940	111.00891	-371.94702	
608	6.070	398.21835	1757.49109	-507.50418							406.89426	1598.98816	-682.82947				606.28772	1464.64246	-590.60016	415.44614	1311.26172	-527.80524	514.99384	1540.35278	-380.62091	230.81868	1224.14990	-207.06694	773.02728	1220.87012	-553.29028	98.89479	1024.57654	-256.53925	688.01843	1022.62469	-675.96130	563.86487	1000.34711	-254.73029	570.62091	948.90369	-557.67004	325.11066	916.77258	-425.76407	293.89960	512.48395	-432.50790	652.38074	500.34839	-506.89340	426.10291	233.45343	-198.40756	690.10278	111.25941	-372.24869	
609	6.080	395.73007	1757.67236	-512.54565	269.82639	1491.95508	-349.90909				403.15991	1599.33142	-688.64502				602.42706	1464.54443	-597.93835	412.11615	1311.66492	-533.34943	513.97009	1540.13330	-387.42670	229.61633	1225.56763	-209.88536	769.18011	1221.38843	-562.45190	96.92657	1026.19543	-256.86746	681.70105	1022.53809	-684.75922	562.63831	1000.46344	-260.79083	565.82324	948.88031	-564.17322	322.24341	916.68024	-429.91940	287.46713	514.55695	-440.62820	650.58698	500.14612	-511.48431	423.06854	229.99554	-213.18970	689.98663	111.74417	-372.48569	
610	6.090	393.35770	1757.66736	-517.56256	268.94168	1492.04077	-352.06396				399.48453	1599.59912	-693.65021				598.49255	1464.24512	-605.98303	408.98358	1311.21692	-538.10773	512.84845	1539.86365	-394.40106	228.05737	1227.00415	-211.93155	765.39929	1220.42285	-572.46997	94.48540	1028.57397	-257.99014	674.95685	1022.15741	-693.87262	560.88470	1000.30786	-266.67654	563.65576	947.67969	-569.47137	319.16708	917.27515	-434.32309	281.76538	517.13678	-447.58386	648.91937	499.62094	-517.35510	419.19473	225.59595	-229.22945	689.44592	112.99809	-372.88623	
611	6.100	390.71429	1757.73950	-522.22491							395.73611	1599.85266	-698.55713				594.34247	1463.98315	-613.65582	405.05246	1311.74182	-543.56256	510.26004	1540.20691	-400.35150	226.93335	1228.27563	-214.57947				92.42036	1030.46924	-258.99524	670.10504	1022.90479	-703.74353	559.46533	1000.40790	-272.66620	559.76874	947.69336	-575.60437	316.54922	917.59668	-438.69284	275.72025	519.13391	-454.94040	647.48285	499.98557	-522.82379	415.57959	220.61383	-244.93199	689.27399	113.90019	-373.29263	
612	6.110	387.78525	1758.29822	-527.58307							391.43054	1600.86975	-704.56506				590.23981	1463.55664	-621.04919	401.55353	1311.69214	-547.87006	508.49323	1540.08875	-407.13391	227.92749	1228.91602	-217.21013	756.60126	1219.24365	-591.93890	90.11602	1032.19336	-259.33826	663.16022	1022.83582	-713.22919	557.14923	1000.33508	-278.42786	555.45850	947.17920	-581.76154	310.22617	917.78607	-443.34320	269.99960	521.28009	-461.99020	644.72534	498.80444	-528.00281	410.53513	214.87823	-261.07825	688.79742	114.63564	-374.01163	
613	6.120	384.98132	1758.17603	-532.36975							387.10596	1601.72070	-710.06177				585.94745	1463.28699	-628.65399	397.84735	1311.56604	-553.72235	507.10431	1539.53601	-414.40433	226.77124	1230.24731	-220.62138	751.77979	1218.00439	-600.26843	88.20320	1034.47327	-261.12799	657.32550	1022.99115	-721.19446	555.65845	1000.49176	-284.13843	551.15179	946.81964	-588.47565	310.35364	918.40222	-446.30768	264.51105	523.08087	-467.92642	641.82001	498.55865	-533.61914	405.36273	209.04633	-277.11887	688.62311	115.39455	-374.62766	
614	6.130	381.79092	1758.67285	-537.93707	263.39819	1493.79834	-369.76227				382.88736	1602.38916	-714.79077				581.45038	1463.08472	-635.78467	394.04236	1311.77405	-559.24829	504.82578	1539.57605	-420.48334	225.64575	1231.07678	-223.64638	747.79523	1218.21619	-610.27850	85.71184	1036.07520	-263.02655	650.19910	1023.06616	-730.24725	553.05969	1000.06360	-290.59018	546.75244	946.95532	-594.52332	306.67697	918.28424	-449.60687	259.41406	524.94586	-473.62750	639.42749	498.45898	-540.28064	399.62314	201.86214	-294.48392	688.42957	116.28029	-375.22278	
615	6.140	378.86343	1758.21899	-542.40295	261.40607	1494.18103	-374.53787				378.25876	1602.97949	-721.02496				576.90338	1462.65930	-643.06030	389.97507	1311.63208	-564.68658	502.18033	1539.38367	-427.17163	224.68742	1232.21545	-226.78835	743.11798	1217.96802	-618.86353	83.77514	1037.17297	-264.04233	644.66791	1023.21802	-739.02649	551.86719	999.68335	-296.90466	541.98755	946.92914	-601.21161	303.04880	919.18610	-455.07318	254.21944	526.29987	-479.03555	636.67358	498.07996	-545.77509	392.90536	194.49002	-311.40192	688.28241	117.83674	-376.78305	
616	6.150	375.57816	1758.47278	-547.44781	259.42847	1494.06274	-377.12918				373.78293	1603.51526	-726.64844				572.05762	1462.32898	-650.99323	385.87000	1311.68225	-569.90790	499.33514	1539.34290	-433.43741	224.15637	1232.74011	-229.37442	736.99933	1216.75049	-628.09521	81.73982	1038.84058	-265.80804	637.05853	1022.81726	-746.39539	549.81995	999.84320	-303.15848	536.89966	946.43799	-607.69818	299.44635	919.43787	-459.14581	249.54659	527.88049	-484.35327	633.74042	497.46478	-551.68909	385.63425	187.36775	-329.23660	687.86023	118.76205	-378.28140	
617	6.160	372.43646	1758.23828	-551.73688	256.66498	1494.47083	-380.62289				369.34561	1603.96460	-731.53619				567.33136	1461.69958	-658.07190	382.05603	1311.49292	-575.11224				222.44218	1233.87268	-232.16919	732.69824	1215.89807	-636.50500	78.60216	1040.23975	-268.28723	631.73767	1022.97388	-755.94165	547.65894	999.81378	-309.81821	532.03186	946.01184	-614.15869	295.31778	919.80133	-463.47763	245.36171	528.08649	-489.11331	631.07214	498.05252	-557.58795	378.24530	179.87410	-346.58594	688.16357	119.62734	-379.28119	
